<svg xmlns="http://www.w3.org/2000/svg" xmlns:xlink="http://www.w3.org/1999/xlink" width="2000" zoomAndPan="magnify" viewBox="0 0 1500 1499.999933" height="2000" preserveAspectRatio="xMidYMid meet" version="1.0"><defs><g/><clipPath id="d6bab3cbbd"><path d="M 1.128906 1 L 336 1 L 336 450 L 1.128906 450 Z M 1.128906 1 " clip-rule="nonzero"/></clipPath><clipPath id="1a680d8616"><rect x="0" width="305" y="0" height="84"/></clipPath><clipPath id="403113890a"><path d="M 680 93 L 777 93 L 777 191 L 680 191 Z M 680 93 " clip-rule="nonzero"/></clipPath><clipPath id="a17e9c3f3f"><path d="M 660.859375 108.574219 L 728.921875 45.664062 L 822.121094 146.5 L 754.058594 209.410156 Z M 660.859375 108.574219 " clip-rule="nonzero"/></clipPath><clipPath id="614c4e0bca"><path d="M 660.859375 108.574219 L 728.921875 45.664062 L 822.121094 146.5 L 754.058594 209.410156 Z M 660.859375 108.574219 " clip-rule="nonzero"/></clipPath><clipPath id="ddcca86b06"><path d="M 729 48 L 826 48 L 826 146 L 729 146 Z M 729 48 " clip-rule="nonzero"/></clipPath><clipPath id="6dd083d9e9"><path d="M 709.699219 63.433594 L 777.761719 0.523438 L 870.960938 101.359375 L 802.898438 164.269531 Z M 709.699219 63.433594 " clip-rule="nonzero"/></clipPath><clipPath id="6f399a69ad"><path d="M 709.699219 63.433594 L 777.761719 0.523438 L 870.960938 101.359375 L 802.898438 164.269531 Z M 709.699219 63.433594 " clip-rule="nonzero"/></clipPath><clipPath id="c31584c79c"><rect x="0" width="866" y="0" height="451"/></clipPath></defs><g transform="matrix(1, 0, 0, 1, 320, 524)"><g clip-path="url(#c31584c79c)"><g clip-path="url(#d6bab3cbbd)"><path fill="#1a1a1a" d="M 191.476562 230.917969 C 187.746094 241.78125 181.882812 251.644531 174.371094 260.027344 C 170.234375 264.652344 165.613281 268.800781 160.554688 272.421875 C 146.644531 282.402344 129.597656 288.285156 111.222656 288.285156 C 64.46875 288.285156 26.421875 250.242188 26.421875 203.484375 C 26.421875 201.882812 27.367188 200.441406 28.8125 199.75 C 83.847656 173.617188 129.984375 247.277344 191.476562 230.917969 Z M 163.863281 282.917969 C 147.082031 294.933594 126.210938 301.613281 103.785156 300.382812 C 54.707031 297.683594 15.640625 256.964844 14.886719 207.8125 C 14.078125 155.195312 56.640625 112.152344 109.058594 112.152344 C 131.328125 112.152344 151.839844 119.929688 167.984375 132.910156 C 173.355469 137.222656 178.242188 142.113281 182.542969 147.484375 C 195.5 163.613281 203.261719 184.097656 203.261719 206.339844 C 203.261719 230.453125 194.152344 252.472656 179.191406 269.152344 C 174.605469 274.273438 169.46875 278.890625 163.863281 282.917969 Z M 335.039062 373.257812 C 333.773438 333.675781 301.007812 301.746094 261.414062 301.433594 C 257.964844 301.40625 254.585938 301.609375 251.261719 302.039062 C 235.054688 304.132812 218.859375 300.644531 205.070312 292.613281 C 195.804688 287.21875 192.902344 275.070312 198.863281 266.152344 C 210.320312 249.03125 217 228.445312 217 206.339844 C 217 190.007812 213.347656 174.503906 206.824219 160.609375 C 199.707031 145.453125 202.5625 127.5 214.40625 115.664062 C 228.679688 101.410156 248.027344 93.398438 268.199219 93.398438 L 268.835938 93.398438 C 294.179688 93.070312 314.785156 71.722656 314.261719 46.363281 C 313.753906 21.703125 293.863281 1.8125 269.203125 1.289062 C 243.859375 0.753906 222.496094 21.34375 222.148438 46.691406 L 222.148438 47.414062 C 222.148438 67.496094 214.171875 86.765625 199.972656 100.96875 C 188.054688 112.878906 170.003906 115.722656 154.746094 108.566406 C 140.863281 102.058594 125.378906 98.414062 109.058594 98.414062 C 49.5625 98.414062 1.136719 146.824219 1.136719 206.339844 C 1.136719 265.851562 49.5625 314.265625 109.058594 314.265625 C 126.953125 314.265625 143.84375 309.890625 158.71875 302.148438 C 168.277344 297.167969 180.097656 301.480469 184.382812 311.371094 C 190.773438 326.097656 192.21875 342.761719 188.496094 358.882812 C 186.941406 365.558594 186.296875 372.597656 186.695312 379.847656 C 188.78125 418.027344 220.199219 448.679688 258.421875 449.886719 C 301.335938 451.242188 336.394531 416.171875 335.039062 373.257812 " fill-opacity="1" fill-rule="nonzero"/></g><g transform="matrix(1, 0, 0, 1, 355, 315)"><g clip-path="url(#1a680d8616)"><g fill="#2e4238" fill-opacity="1"><g transform="translate(2.468586, 67.0264)"><g><path d="M 17 0.4375 C 13.96875 0.4375 11.375 -0.175781 9.21875 -1.40625 C 7.0625 -2.644531 5.4375 -4.242188 4.34375 -6.203125 C 3.257812 -8.160156 2.71875 -10.207031 2.71875 -12.34375 L 2.71875 -12.625 L 9.03125 -12.625 L 9.03125 -12.34375 C 9.03125 -11.164062 9.304688 -9.992188 9.859375 -8.828125 C 10.410156 -7.671875 11.296875 -6.691406 12.515625 -5.890625 C 13.734375 -5.097656 15.265625 -4.703125 17.109375 -4.703125 C 19.359375 -4.703125 21.191406 -5.273438 22.609375 -6.421875 C 24.035156 -7.566406 24.75 -9.117188 24.75 -11.078125 C 24.75 -12.703125 24.203125 -13.992188 23.109375 -14.953125 C 22.023438 -15.910156 20.65625 -16.554688 19 -16.890625 L 13.671875 -17.9375 C 11.347656 -18.414062 9.101562 -19.398438 6.9375 -20.890625 C 4.78125 -22.390625 3.703125 -24.894531 3.703125 -28.40625 C 3.703125 -30.65625 4.25 -32.628906 5.34375 -34.328125 C 6.4375 -36.023438 7.957031 -37.328125 9.90625 -38.234375 C 11.863281 -39.140625 14.097656 -39.59375 16.609375 -39.59375 C 19.492188 -39.59375 21.96875 -39.019531 24.03125 -37.875 C 26.101562 -36.726562 27.664062 -35.238281 28.71875 -33.40625 C 29.769531 -31.582031 30.296875 -29.675781 30.296875 -27.6875 L 30.296875 -27.46875 L 23.984375 -27.46875 L 23.984375 -27.625 C 23.984375 -28.625 23.738281 -29.660156 23.25 -30.734375 C 22.769531 -31.804688 21.96875 -32.71875 20.84375 -33.46875 C 19.71875 -34.226562 18.253906 -34.609375 16.453125 -34.609375 C 14.304688 -34.609375 12.613281 -34.023438 11.375 -32.859375 C 10.144531 -31.703125 9.53125 -30.253906 9.53125 -28.515625 C 9.53125 -27.003906 10.054688 -25.769531 11.109375 -24.8125 C 12.160156 -23.851562 13.535156 -23.207031 15.234375 -22.875 L 20.15625 -21.875 C 23 -21.28125 25.476562 -20.1875 27.59375 -18.59375 C 29.71875 -17.007812 30.78125 -14.554688 30.78125 -11.234375 C 30.78125 -8.953125 30.195312 -6.921875 29.03125 -5.140625 C 27.875 -3.367188 26.253906 -1.992188 24.171875 -1.015625 C 22.085938 -0.046875 19.695312 0.4375 17 0.4375 Z M 17 0.4375 "/></g></g></g><g fill="#2e4238" fill-opacity="1"><g transform="translate(35.748062, 67.0264)"><g><path d="M 20.265625 0.390625 C 16.535156 0.390625 13.347656 -0.46875 10.703125 -2.1875 C 8.066406 -3.90625 6.066406 -6.265625 4.703125 -9.265625 C 3.335938 -12.273438 2.65625 -15.679688 2.65625 -19.484375 C 2.65625 -23.296875 3.335938 -26.722656 4.703125 -29.765625 C 6.066406 -32.804688 8.078125 -35.203125 10.734375 -36.953125 C 13.398438 -38.710938 16.578125 -39.59375 20.265625 -39.59375 C 23.921875 -39.59375 27.066406 -38.722656 29.703125 -36.984375 C 32.347656 -35.253906 34.351562 -32.863281 35.71875 -29.8125 C 37.082031 -26.769531 37.765625 -23.3125 37.765625 -19.4375 C 37.765625 -15.59375 37.082031 -12.175781 35.71875 -9.1875 C 34.351562 -6.195312 32.347656 -3.851562 29.703125 -2.15625 C 27.066406 -0.457031 23.921875 0.390625 20.265625 0.390625 Z M 20.21875 -4.8125 C 22.570312 -4.8125 24.617188 -5.4375 26.359375 -6.6875 C 28.097656 -7.945312 29.425781 -9.691406 30.34375 -11.921875 C 31.269531 -14.160156 31.734375 -16.703125 31.734375 -19.546875 C 31.734375 -22.390625 31.269531 -24.925781 30.34375 -27.15625 C 29.425781 -29.394531 28.097656 -31.160156 26.359375 -32.453125 C 24.617188 -33.742188 22.570312 -34.390625 20.21875 -34.390625 C 17.851562 -34.390625 15.800781 -33.742188 14.0625 -32.453125 C 12.332031 -31.160156 11.003906 -29.382812 10.078125 -27.125 C 9.148438 -24.875 8.6875 -22.347656 8.6875 -19.546875 C 8.6875 -16.742188 9.148438 -14.222656 10.078125 -11.984375 C 11.003906 -9.753906 12.332031 -8 14.0625 -6.71875 C 15.800781 -5.445312 17.851562 -4.8125 20.21875 -4.8125 Z M 20.21875 -4.8125 "/></g></g></g><g fill="#2e4238" fill-opacity="1"><g transform="translate(76.281438, 67.0264)"><g><path d="M 27.25 -5.09375 L 27.25 0 L 3.828125 0 L 3.828125 -38.765625 L 9.640625 -38.765625 L 9.578125 -5.09375 Z M 27.25 -5.09375 "/></g></g></g><g fill="#2e4238" fill-opacity="1"><g transform="translate(105.629352, 67.0264)"><g><path d="M 19 0.5 C 14.082031 0.5 10.257812 -0.992188 7.53125 -3.984375 C 4.800781 -6.972656 3.4375 -11.332031 3.4375 -17.0625 L 3.4375 -38.765625 L 9.078125 -38.765625 L 9.078125 -17.28125 C 9.078125 -14.132812 9.75 -11.296875 11.09375 -8.765625 C 12.445312 -6.242188 15.082031 -4.984375 19 -4.984375 C 22.800781 -4.984375 25.375 -6.238281 26.71875 -8.75 C 28.0625 -11.257812 28.734375 -14.101562 28.734375 -17.28125 L 28.734375 -38.765625 L 34.4375 -38.765625 L 34.4375 -17.0625 C 34.4375 -11.332031 33.0625 -6.972656 30.3125 -3.984375 C 27.5625 -0.992188 23.789062 0.5 19 0.5 Z M 19 0.5 "/></g></g></g><g fill="#2e4238" fill-opacity="1"><g transform="translate(143.504833, 67.0264)"><g><path d="M 30.296875 -33.671875 L 19.15625 -33.671875 L 19.15625 0 L 13.453125 0 L 13.453125 -33.671875 L 2.328125 -33.671875 L 2.328125 -38.765625 L 30.296875 -38.765625 Z M 30.296875 -33.671875 "/></g></g></g><g fill="#2e4238" fill-opacity="1"><g transform="translate(176.175211, 67.0264)"><g><path d="M 4.046875 -38.765625 L 9.859375 -38.765625 L 9.859375 0 L 4.046875 0 Z M 4.046875 -38.765625 "/></g></g></g><g fill="#2e4238" fill-opacity="1"><g transform="translate(190.073975, 67.0264)"><g><path d="M 20.265625 0.390625 C 16.535156 0.390625 13.347656 -0.46875 10.703125 -2.1875 C 8.066406 -3.90625 6.066406 -6.265625 4.703125 -9.265625 C 3.335938 -12.273438 2.65625 -15.679688 2.65625 -19.484375 C 2.65625 -23.296875 3.335938 -26.722656 4.703125 -29.765625 C 6.066406 -32.804688 8.078125 -35.203125 10.734375 -36.953125 C 13.398438 -38.710938 16.578125 -39.59375 20.265625 -39.59375 C 23.921875 -39.59375 27.066406 -38.722656 29.703125 -36.984375 C 32.347656 -35.253906 34.351562 -32.863281 35.71875 -29.8125 C 37.082031 -26.769531 37.765625 -23.3125 37.765625 -19.4375 C 37.765625 -15.59375 37.082031 -12.175781 35.71875 -9.1875 C 34.351562 -6.195312 32.347656 -3.851562 29.703125 -2.15625 C 27.066406 -0.457031 23.921875 0.390625 20.265625 0.390625 Z M 20.21875 -4.8125 C 22.570312 -4.8125 24.617188 -5.4375 26.359375 -6.6875 C 28.097656 -7.945312 29.425781 -9.691406 30.34375 -11.921875 C 31.269531 -14.160156 31.734375 -16.703125 31.734375 -19.546875 C 31.734375 -22.390625 31.269531 -24.925781 30.34375 -27.15625 C 29.425781 -29.394531 28.097656 -31.160156 26.359375 -32.453125 C 24.617188 -33.742188 22.570312 -34.390625 20.21875 -34.390625 C 17.851562 -34.390625 15.800781 -33.742188 14.0625 -32.453125 C 12.332031 -31.160156 11.003906 -29.382812 10.078125 -27.125 C 9.148438 -24.875 8.6875 -22.347656 8.6875 -19.546875 C 8.6875 -16.742188 9.148438 -14.222656 10.078125 -11.984375 C 11.003906 -9.753906 12.332031 -8 14.0625 -6.71875 C 15.800781 -5.445312 17.851562 -4.8125 20.21875 -4.8125 Z M 20.21875 -4.8125 "/></g></g></g><g fill="#2e4238" fill-opacity="1"><g transform="translate(230.607351, 67.0264)"><g><path d="M 3.828125 -38.765625 L 10.359375 -38.765625 L 29.515625 -9.03125 L 29.6875 -9.03125 L 29.6875 -38.765625 L 35.390625 -38.765625 L 35.390625 0 L 28.734375 0 L 9.6875 -29.125 L 9.53125 -29.125 L 9.53125 0 L 3.828125 0 Z M 3.828125 -38.765625 "/></g></g></g><g fill="#2e4238" fill-opacity="1"><g transform="translate(269.81178, 67.0264)"><g><path d="M 17 0.4375 C 13.96875 0.4375 11.375 -0.175781 9.21875 -1.40625 C 7.0625 -2.644531 5.4375 -4.242188 4.34375 -6.203125 C 3.257812 -8.160156 2.71875 -10.207031 2.71875 -12.34375 L 2.71875 -12.625 L 9.03125 -12.625 L 9.03125 -12.34375 C 9.03125 -11.164062 9.304688 -9.992188 9.859375 -8.828125 C 10.410156 -7.671875 11.296875 -6.691406 12.515625 -5.890625 C 13.734375 -5.097656 15.265625 -4.703125 17.109375 -4.703125 C 19.359375 -4.703125 21.191406 -5.273438 22.609375 -6.421875 C 24.035156 -7.566406 24.75 -9.117188 24.75 -11.078125 C 24.75 -12.703125 24.203125 -13.992188 23.109375 -14.953125 C 22.023438 -15.910156 20.65625 -16.554688 19 -16.890625 L 13.671875 -17.9375 C 11.347656 -18.414062 9.101562 -19.398438 6.9375 -20.890625 C 4.78125 -22.390625 3.703125 -24.894531 3.703125 -28.40625 C 3.703125 -30.65625 4.25 -32.628906 5.34375 -34.328125 C 6.4375 -36.023438 7.957031 -37.328125 9.90625 -38.234375 C 11.863281 -39.140625 14.097656 -39.59375 16.609375 -39.59375 C 19.492188 -39.59375 21.96875 -39.019531 24.03125 -37.875 C 26.101562 -36.726562 27.664062 -35.238281 28.71875 -33.40625 C 29.769531 -31.582031 30.296875 -29.675781 30.296875 -27.6875 L 30.296875 -27.46875 L 23.984375 -27.46875 L 23.984375 -27.625 C 23.984375 -28.625 23.738281 -29.660156 23.25 -30.734375 C 22.769531 -31.804688 21.96875 -32.71875 20.84375 -33.46875 C 19.71875 -34.226562 18.253906 -34.609375 16.453125 -34.609375 C 14.304688 -34.609375 12.613281 -34.023438 11.375 -32.859375 C 10.144531 -31.703125 9.53125 -30.253906 9.53125 -28.515625 C 9.53125 -27.003906 10.054688 -25.769531 11.109375 -24.8125 C 12.160156 -23.851562 13.535156 -23.207031 15.234375 -22.875 L 20.15625 -21.875 C 23 -21.28125 25.476562 -20.1875 27.59375 -18.59375 C 29.71875 -17.007812 30.78125 -14.554688 30.78125 -11.234375 C 30.78125 -8.953125 30.195312 -6.921875 29.03125 -5.140625 C 27.875 -3.367188 26.253906 -1.992188 24.171875 -1.015625 C 22.085938 -0.046875 19.695312 0.4375 17 0.4375 Z M 17 0.4375 "/></g></g></g></g></g><g fill="#373643" fill-opacity="1"><g transform="translate(283.994913, 295.842324)"><g><path d="M 85.96875 -158.90625 C 98.082031 -158.90625 109.296875 -157.101562 119.609375 -153.5 C 129.921875 -149.90625 139.09375 -143.601562 147.125 -134.59375 C 150.394531 -130.820312 151.820312 -127.21875 151.40625 -123.78125 C 151 -120.34375 149.445312 -117.5625 146.75 -115.4375 C 144.050781 -113.3125 140.859375 -112.328125 137.171875 -112.484375 C 133.484375 -112.648438 130.003906 -114.453125 126.734375 -117.890625 C 120.671875 -124.609375 114.242188 -128.945312 107.453125 -130.90625 C 100.660156 -132.875 93.414062 -133.859375 85.71875 -133.859375 C 75.40625 -133.859375 66.359375 -131.601562 58.578125 -127.09375 C 50.796875 -122.59375 44.734375 -116.332031 40.390625 -108.3125 C 36.054688 -100.289062 33.890625 -90.875 33.890625 -80.0625 C 33.890625 -68.601562 36.097656 -58.535156 40.515625 -49.859375 C 44.941406 -41.179688 51.125 -34.46875 59.0625 -29.71875 C 67.007812 -24.96875 76.304688 -22.59375 86.953125 -22.59375 C 94.640625 -22.59375 102.332031 -24.554688 110.03125 -28.484375 C 117.726562 -32.421875 123.867188 -37.171875 128.453125 -42.734375 C 131.722656 -46.660156 135.28125 -48.910156 139.125 -49.484375 C 142.976562 -50.054688 146.335938 -49.398438 149.203125 -47.515625 C 152.066406 -45.640625 153.785156 -42.984375 154.359375 -39.546875 C 154.929688 -36.109375 153.742188 -32.257812 150.796875 -28 C 146.378906 -21.78125 140.648438 -16.375 133.609375 -11.78125 C 126.566406 -7.195312 118.953125 -3.675781 110.765625 -1.21875 C 102.578125 1.226562 94.472656 2.453125 86.453125 2.453125 C 70.242188 2.453125 56.078125 -0.984375 43.953125 -7.859375 C 31.835938 -14.734375 22.425781 -24.351562 15.71875 -36.71875 C 9.007812 -49.082031 5.65625 -63.53125 5.65625 -80.0625 C 5.65625 -95.945312 9.171875 -109.785156 16.203125 -121.578125 C 23.242188 -133.367188 32.863281 -142.535156 45.0625 -149.078125 C 57.269531 -155.628906 70.90625 -158.90625 85.96875 -158.90625 Z M 85.96875 -158.90625 "/></g></g></g><g fill="#373643" fill-opacity="1"><g transform="translate(438.476291, 295.842324)"><g><path d="M 127.21875 -156.453125 C 131.96875 -156.453125 135.570312 -155.140625 138.03125 -152.515625 C 140.488281 -149.898438 141.71875 -146.957031 141.71875 -143.6875 C 141.71875 -140.570312 140.488281 -137.703125 138.03125 -135.078125 C 135.570312 -132.460938 131.96875 -131.15625 127.21875 -131.15625 L 81.546875 -131.15625 L 81.78125 -13.015625 C 81.78125 -8.597656 80.179688 -5.320312 76.984375 -3.1875 C 73.796875 -1.0625 70.566406 0 67.296875 0 C 63.859375 0 60.625 -1.0625 57.59375 -3.1875 C 54.5625 -5.320312 53.046875 -8.597656 53.046875 -13.015625 L 53.046875 -131.15625 L 7.609375 -131.15625 C 2.859375 -131.15625 -0.617188 -132.460938 -2.828125 -135.078125 C -5.035156 -137.703125 -6.140625 -140.570312 -6.140625 -143.6875 C -6.140625 -146.957031 -5.035156 -149.898438 -2.828125 -152.515625 C -0.617188 -155.140625 2.859375 -156.453125 7.609375 -156.453125 Z M 127.21875 -156.453125 "/></g></g></g><g fill="#373643" fill-opacity="1"><g transform="translate(573.800953, 295.842324)"><g><path d="M 144.421875 -21.375 C 147.035156 -18.09375 148.34375 -14.976562 148.34375 -12.03125 C 148.34375 -8.757812 147.03125 -5.9375 144.40625 -3.5625 C 141.789062 -1.1875 138.601562 0 134.84375 0 C 132.707031 0 130.578125 -0.363281 128.453125 -1.09375 C 126.328125 -1.832031 124.363281 -3.1875 122.5625 -5.15625 L 73.921875 -59.1875 L 25.046875 -5.15625 C 23.410156 -3.351562 21.609375 -2.039062 19.640625 -1.21875 C 17.679688 -0.40625 15.71875 0 13.75 0 C 10.144531 0 6.992188 -1.226562 4.296875 -3.6875 C 1.597656 -6.144531 0.25 -9.007812 0.25 -12.28125 C 0.25 -15.71875 1.554688 -18.828125 4.171875 -21.609375 L 56.734375 -79.328125 L 5.65625 -136.3125 C 3.195312 -139.09375 2.332031 -142.039062 3.0625 -145.15625 C 3.800781 -148.269531 5.476562 -150.929688 8.09375 -153.140625 C 10.71875 -155.347656 13.585938 -156.453125 16.703125 -156.453125 C 18.671875 -156.453125 20.550781 -156.164062 22.34375 -155.59375 C 24.144531 -155.019531 25.785156 -153.914062 27.265625 -152.28125 L 74.421875 -99.96875 L 121.828125 -151.78125 C 124.441406 -154.894531 127.960938 -156.453125 132.390625 -156.453125 C 135.660156 -156.453125 138.5625 -155.347656 141.09375 -153.140625 C 143.632812 -150.929688 145.234375 -148.269531 145.890625 -145.15625 C 146.546875 -142.039062 145.484375 -138.929688 142.703125 -135.828125 L 91.859375 -79.828125 Z M 144.421875 -21.375 "/></g></g></g><g clip-path="url(#403113890a)"><g clip-path="url(#a17e9c3f3f)"><g clip-path="url(#614c4e0bca)"><path fill="#30a3e6" d="M 776.230469 97.324219 L 693.734375 93.65625 C 677.800781 92.949219 675.109375 123.988281 693.988281 124.5 L 745.320312 125.890625 L 741.398438 177.542969 C 740.207031 193.273438 770.882812 194.933594 771.757812 178.949219 Z M 776.230469 97.324219 " fill-opacity="1" fill-rule="nonzero"/></g></g></g><g clip-path="url(#ddcca86b06)"><g clip-path="url(#6dd083d9e9)"><g clip-path="url(#6f399a69ad)"><path fill="#004aad" d="M 825.066406 52.183594 L 742.574219 48.515625 C 726.636719 47.808594 723.949219 78.847656 742.828125 79.359375 L 794.160156 80.75 L 790.238281 132.402344 C 789.046875 148.132812 819.722656 149.792969 820.597656 133.808594 Z M 825.066406 52.183594 " fill-opacity="1" fill-rule="nonzero"/></g></g></g></g></g></svg>