<svg xmlns="http://www.w3.org/2000/svg" xmlns:xlink="http://www.w3.org/1999/xlink" width="2000" zoomAndPan="magnify" viewBox="0 0 1500 1499.999933" height="2000" preserveAspectRatio="xMidYMid meet" version="1.0"><defs><g/><clipPath id="34a678cb25"><path d="M 1268.722656 701.851562 L 1316.867188 701.851562 L 1316.867188 750 L 1268.722656 750 Z M 1268.722656 701.851562 " clip-rule="nonzero"/></clipPath><clipPath id="2882432e02"><path d="M 1292.792969 701.851562 C 1279.5 701.851562 1268.722656 712.632812 1268.722656 725.925781 C 1268.722656 739.222656 1279.5 750 1292.792969 750 C 1306.089844 750 1316.867188 739.222656 1316.867188 725.925781 C 1316.867188 712.632812 1306.089844 701.851562 1292.792969 701.851562 Z M 1292.792969 701.851562 " clip-rule="nonzero"/></clipPath><clipPath id="9f5d1103b5"><path d="M 0.722656 0.851562 L 48.867188 0.851562 L 48.867188 49 L 0.722656 49 Z M 0.722656 0.851562 " clip-rule="nonzero"/></clipPath><clipPath id="4e4af2bd52"><path d="M 24.792969 0.851562 C 11.5 0.851562 0.722656 11.632812 0.722656 24.925781 C 0.722656 38.222656 11.5 49 24.792969 49 C 38.089844 49 48.867188 38.222656 48.867188 24.925781 C 48.867188 11.632812 38.089844 0.851562 24.792969 0.851562 Z M 24.792969 0.851562 " clip-rule="nonzero"/></clipPath><clipPath id="08e838b3b3"><rect x="0" width="49" y="0" height="49"/></clipPath><clipPath id="175f3b574d"><rect x="0" width="991" y="0" height="237"/></clipPath></defs><g clip-path="url(#34a678cb25)"><g clip-path="url(#2882432e02)"><g transform="matrix(1, 0, 0, 1, 1268, 701)"><g clip-path="url(#08e838b3b3)"><g clip-path="url(#9f5d1103b5)"><g clip-path="url(#4e4af2bd52)"><path fill="#0025cc" d="M 0.722656 0.851562 L 48.867188 0.851562 L 48.867188 49 L 0.722656 49 Z M 0.722656 0.851562 " fill-opacity="1" fill-rule="nonzero"/></g></g></g></g></g></g><g transform="matrix(1, 0, 0, 1, 274, 596)"><g clip-path="url(#175f3b574d)"><g fill="#373643" fill-opacity="1"><g transform="translate(1.500522, 187.385712)"><g><path d="M 33.9375 -34.71875 L 33.9375 -10 C 33.9375 -6.601562 32.722656 -4.085938 30.296875 -2.453125 C 27.878906 -0.816406 25.300781 0 22.5625 0 C 19.6875 0 17.101562 -0.816406 14.8125 -2.453125 C 12.519531 -4.085938 11.375 -6.539062 11.375 -9.8125 L 11.375 -114.75 C 11.375 -117.757812 12.484375 -120.210938 14.703125 -122.109375 C 16.929688 -124.003906 19.613281 -124.953125 22.75 -124.953125 L 62.765625 -124.953125 C 73.617188 -124.953125 82.90625 -123.019531 90.625 -119.15625 C 98.34375 -115.300781 104.226562 -109.941406 108.28125 -103.078125 C 112.332031 -96.210938 114.359375 -88.140625 114.359375 -78.859375 C 114.359375 -65.648438 109.78125 -54.988281 100.625 -46.875 C 91.46875 -38.769531 78.65625 -34.71875 62.1875 -34.71875 Z M 33.9375 -105.53125 L 33.9375 -54.140625 L 62.1875 -54.140625 C 71.863281 -54.140625 79.25 -56.394531 84.34375 -60.90625 C 89.445312 -65.414062 92 -71.398438 92 -78.859375 C 92 -86.960938 89.476562 -93.429688 84.4375 -98.265625 C 79.40625 -103.109375 72.25 -105.53125 62.96875 -105.53125 Z M 33.9375 -105.53125 "/></g></g></g><g fill="#373643" fill-opacity="1"><g transform="translate(119.58489, 187.385712)"><g><path d="M 102.203125 -19.609375 C 105.597656 -19.609375 108.242188 -18.53125 110.140625 -16.375 C 112.035156 -14.21875 112.984375 -11.898438 112.984375 -9.421875 C 112.984375 -7.066406 112.097656 -4.90625 110.328125 -2.9375 C 108.566406 -0.976562 105.859375 0 102.203125 0 L 24.328125 0 C 20.398438 0 17.257812 -1.140625 14.90625 -3.421875 C 12.550781 -5.710938 11.375 -8.492188 11.375 -11.765625 L 11.375 -113.375 C 11.375 -116.519531 12.550781 -119.234375 14.90625 -121.515625 C 17.257812 -123.804688 20.398438 -124.953125 24.328125 -124.953125 L 102.203125 -124.953125 C 105.734375 -124.953125 108.347656 -124.003906 110.046875 -122.109375 C 111.742188 -120.210938 112.59375 -118.019531 112.59375 -115.53125 C 112.59375 -113.175781 111.707031 -110.953125 109.9375 -108.859375 C 108.175781 -106.773438 105.597656 -105.734375 102.203125 -105.734375 L 33.734375 -105.734375 L 33.734375 -71.40625 L 98.671875 -71.40625 C 102.066406 -71.40625 104.613281 -70.390625 106.3125 -68.359375 C 108.007812 -66.328125 108.859375 -64.070312 108.859375 -61.59375 C 108.859375 -59.238281 108.007812 -57.078125 106.3125 -55.109375 C 104.613281 -53.148438 102.066406 -52.171875 98.671875 -52.171875 L 33.734375 -52.171875 L 33.734375 -19.609375 Z M 102.203125 -19.609375 "/></g></g></g><g fill="#373643" fill-opacity="1"><g transform="translate(237.4731, 187.385712)"><g><path d="M 1.375 -29.625 C 0.457031 -33.414062 1.367188 -36.421875 4.109375 -38.640625 C 6.859375 -40.867188 9.9375 -41.984375 13.34375 -41.984375 C 15.957031 -41.984375 18.273438 -41.359375 20.296875 -40.109375 C 22.328125 -38.867188 23.601562 -36.941406 24.125 -34.328125 C 25.5625 -30.140625 28.273438 -26.898438 32.265625 -24.609375 C 36.253906 -22.328125 40.734375 -20.757812 45.703125 -19.90625 C 50.671875 -19.0625 55.3125 -18.640625 59.625 -18.640625 C 63.03125 -18.640625 66.757812 -18.898438 70.8125 -19.421875 C 74.863281 -19.941406 78.71875 -20.890625 82.375 -22.265625 C 86.039062 -23.640625 89.050781 -25.566406 91.40625 -28.046875 C 93.757812 -30.535156 94.9375 -33.738281 94.9375 -37.65625 C 94.9375 -41.84375 93.203125 -44.914062 89.734375 -46.875 C 86.273438 -48.84375 81.863281 -50.25 76.5 -51.09375 C 71.132812 -51.945312 65.507812 -52.570312 59.625 -52.96875 C 52.957031 -53.488281 46.253906 -54.269531 39.515625 -55.3125 C 32.785156 -56.363281 26.640625 -58.066406 21.078125 -60.421875 C 15.523438 -62.773438 11.046875 -66.207031 7.640625 -70.71875 C 4.242188 -75.226562 2.546875 -81.207031 2.546875 -88.65625 C 2.546875 -95.332031 4.242188 -101.085938 7.640625 -105.921875 C 11.046875 -110.765625 15.492188 -114.722656 20.984375 -117.796875 C 26.484375 -120.867188 32.4375 -123.15625 38.84375 -124.65625 C 45.25 -126.15625 51.523438 -126.90625 57.671875 -126.90625 C 64.472656 -126.90625 71.597656 -126.117188 79.046875 -124.546875 C 86.503906 -122.984375 93.335938 -120.207031 99.546875 -116.21875 C 105.753906 -112.226562 110.363281 -106.640625 113.375 -99.453125 C 114.425781 -95.785156 113.675781 -92.742188 111.125 -90.328125 C 108.570312 -87.910156 105.597656 -86.703125 102.203125 -86.703125 C 100.109375 -86.703125 98.113281 -87.191406 96.21875 -88.171875 C 94.320312 -89.148438 92.976562 -90.488281 92.1875 -92.1875 C 90.625 -96.25 87.878906 -99.257812 83.953125 -101.21875 C 80.023438 -103.175781 75.707031 -104.445312 71 -105.03125 C 66.300781 -105.625 61.921875 -105.921875 57.859375 -105.921875 C 55.242188 -105.921875 52.140625 -105.660156 48.546875 -105.140625 C 44.953125 -104.617188 41.453125 -103.703125 38.046875 -102.390625 C 34.648438 -101.085938 31.804688 -99.289062 29.515625 -97 C 27.234375 -94.707031 26.09375 -91.863281 26.09375 -88.46875 C 26.09375 -84.28125 27.722656 -81.140625 30.984375 -79.046875 C 34.253906 -76.953125 38.601562 -75.515625 44.03125 -74.734375 C 49.457031 -73.953125 55.378906 -73.300781 61.796875 -72.78125 C 68.585938 -72.125 75.347656 -71.367188 82.078125 -70.515625 C 88.816406 -69.671875 94.929688 -68.164062 100.421875 -66 C 105.921875 -63.84375 110.304688 -60.570312 113.578125 -56.1875 C 116.847656 -51.8125 118.484375 -45.703125 118.484375 -37.859375 C 118.484375 -30.015625 116.617188 -23.539062 112.890625 -18.4375 C 109.160156 -13.332031 104.285156 -9.273438 98.265625 -6.265625 C 92.253906 -3.265625 85.847656 -1.144531 79.046875 0.09375 C 72.242188 1.34375 65.769531 1.96875 59.625 1.96875 C 54.53125 1.96875 48.972656 1.472656 42.953125 0.484375 C 36.941406 -0.492188 31.09375 -2.191406 25.40625 -4.609375 C 19.71875 -7.023438 14.710938 -10.257812 10.390625 -14.3125 C 6.078125 -18.375 3.070312 -23.476562 1.375 -29.625 Z M 1.375 -29.625 "/></g></g></g><g fill="#373643" fill-opacity="1"><g transform="translate(356.734379, 187.385712)"><g><path d="M 132.40625 -62.375 C 132.40625 -49.5625 129.753906 -38.316406 124.453125 -28.640625 C 119.160156 -18.960938 111.738281 -11.441406 102.1875 -6.078125 C 92.644531 -0.710938 81.46875 1.96875 68.65625 1.96875 C 55.84375 1.96875 44.597656 -0.710938 34.921875 -6.078125 C 25.242188 -11.441406 17.722656 -18.960938 12.359375 -28.640625 C 6.992188 -38.316406 4.3125 -49.5625 4.3125 -62.375 C 4.3125 -75.320312 6.992188 -86.632812 12.359375 -96.3125 C 17.722656 -105.988281 25.242188 -113.503906 34.921875 -118.859375 C 44.597656 -124.222656 55.84375 -126.90625 68.65625 -126.90625 C 81.46875 -126.90625 92.644531 -124.222656 102.1875 -118.859375 C 111.738281 -113.503906 119.160156 -105.988281 124.453125 -96.3125 C 129.753906 -86.632812 132.40625 -75.320312 132.40625 -62.375 Z M 68.65625 -18.046875 C 76.894531 -18.046875 84.050781 -19.910156 90.125 -23.640625 C 96.207031 -27.367188 100.945312 -32.566406 104.34375 -39.234375 C 107.75 -45.898438 109.453125 -53.613281 109.453125 -62.375 C 109.453125 -71.269531 107.75 -79.050781 104.34375 -85.71875 C 100.945312 -92.382812 96.207031 -97.582031 90.125 -101.3125 C 84.050781 -105.039062 76.894531 -106.90625 68.65625 -106.90625 C 60.414062 -106.90625 53.1875 -105.039062 46.96875 -101.3125 C 40.757812 -97.582031 35.957031 -92.382812 32.5625 -85.71875 C 29.164062 -79.050781 27.46875 -71.269531 27.46875 -62.375 C 27.46875 -53.613281 29.164062 -45.898438 32.5625 -39.234375 C 35.957031 -32.566406 40.757812 -27.367188 46.96875 -23.640625 C 53.1875 -19.910156 60.414062 -18.046875 68.65625 -18.046875 Z M 68.65625 -18.046875 "/></g></g></g><g fill="#373643" fill-opacity="1"><g transform="translate(495.414952, 187.385712)"><g><path d="M 61.796875 -36.6875 L 97.484375 -107.5 C 98.398438 -109.71875 99.773438 -111.347656 101.609375 -112.390625 C 103.441406 -113.441406 105.46875 -113.96875 107.6875 -113.96875 C 109.914062 -113.96875 112.039062 -113.441406 114.0625 -112.390625 C 116.09375 -111.347656 117.628906 -109.847656 118.671875 -107.890625 L 154.375 -36.6875 L 191.0625 -117.109375 C 192.101562 -119.460938 193.632812 -121.359375 195.65625 -122.796875 C 197.6875 -124.234375 199.945312 -124.953125 202.4375 -124.953125 C 204.789062 -124.953125 207.046875 -124.296875 209.203125 -122.984375 C 211.359375 -121.679688 212.894531 -119.851562 213.8125 -117.5 C 214.726562 -115.144531 214.46875 -112.398438 213.03125 -109.265625 L 165.359375 -6.46875 C 164.441406 -4.375 162.96875 -2.769531 160.9375 -1.65625 C 158.914062 -0.550781 156.796875 0 154.578125 0 C 152.347656 0 150.347656 -0.457031 148.578125 -1.375 C 146.816406 -2.289062 145.414062 -3.859375 144.375 -6.078125 L 107.890625 -78.0625 L 71.796875 -6.078125 C 70.878906 -4.242188 69.375 -2.769531 67.28125 -1.65625 C 65.1875 -0.550781 62.960938 0 60.609375 0 C 58.390625 0 56.363281 -0.519531 54.53125 -1.5625 C 52.695312 -2.613281 51.320312 -4.25 50.40625 -6.46875 L 3.53125 -108.46875 C 2.21875 -111.476562 1.921875 -114.222656 2.640625 -116.703125 C 3.367188 -119.191406 4.773438 -121.1875 6.859375 -122.6875 C 8.953125 -124.195312 11.175781 -124.953125 13.53125 -124.953125 C 18.894531 -124.953125 22.882812 -122.007812 25.5 -116.125 Z M 61.796875 -36.6875 "/></g></g></g><g fill="#373643" fill-opacity="1"><g transform="translate(717.461014, 187.385712)"><g><path d="M 8.828125 -114.359375 C 8.828125 -118.015625 10.003906 -120.691406 12.359375 -122.390625 C 14.710938 -124.097656 17.328125 -124.953125 20.203125 -124.953125 C 23.078125 -124.953125 25.722656 -124.097656 28.140625 -122.390625 C 30.566406 -120.691406 31.78125 -118.015625 31.78125 -114.359375 L 31.78125 -10 C 31.78125 -6.726562 30.566406 -4.242188 28.140625 -2.546875 C 25.722656 -0.847656 23.078125 0 20.203125 0 C 17.328125 0 14.710938 -0.816406 12.359375 -2.453125 C 10.003906 -4.085938 8.828125 -6.601562 8.828125 -10 Z M 8.828125 -114.359375 "/></g></g></g><g fill="#373643" fill-opacity="1"><g transform="translate(753.160645, 187.385712)"><g><path d="M 1.375 -29.625 C 0.457031 -33.414062 1.367188 -36.421875 4.109375 -38.640625 C 6.859375 -40.867188 9.9375 -41.984375 13.34375 -41.984375 C 15.957031 -41.984375 18.273438 -41.359375 20.296875 -40.109375 C 22.328125 -38.867188 23.601562 -36.941406 24.125 -34.328125 C 25.5625 -30.140625 28.273438 -26.898438 32.265625 -24.609375 C 36.253906 -22.328125 40.734375 -20.757812 45.703125 -19.90625 C 50.671875 -19.0625 55.3125 -18.640625 59.625 -18.640625 C 63.03125 -18.640625 66.757812 -18.898438 70.8125 -19.421875 C 74.863281 -19.941406 78.71875 -20.890625 82.375 -22.265625 C 86.039062 -23.640625 89.050781 -25.566406 91.40625 -28.046875 C 93.757812 -30.535156 94.9375 -33.738281 94.9375 -37.65625 C 94.9375 -41.84375 93.203125 -44.914062 89.734375 -46.875 C 86.273438 -48.84375 81.863281 -50.25 76.5 -51.09375 C 71.132812 -51.945312 65.507812 -52.570312 59.625 -52.96875 C 52.957031 -53.488281 46.253906 -54.269531 39.515625 -55.3125 C 32.785156 -56.363281 26.640625 -58.066406 21.078125 -60.421875 C 15.523438 -62.773438 11.046875 -66.207031 7.640625 -70.71875 C 4.242188 -75.226562 2.546875 -81.207031 2.546875 -88.65625 C 2.546875 -95.332031 4.242188 -101.085938 7.640625 -105.921875 C 11.046875 -110.765625 15.492188 -114.722656 20.984375 -117.796875 C 26.484375 -120.867188 32.4375 -123.15625 38.84375 -124.65625 C 45.25 -126.15625 51.523438 -126.90625 57.671875 -126.90625 C 64.472656 -126.90625 71.597656 -126.117188 79.046875 -124.546875 C 86.503906 -122.984375 93.335938 -120.207031 99.546875 -116.21875 C 105.753906 -112.226562 110.363281 -106.640625 113.375 -99.453125 C 114.425781 -95.785156 113.675781 -92.742188 111.125 -90.328125 C 108.570312 -87.910156 105.597656 -86.703125 102.203125 -86.703125 C 100.109375 -86.703125 98.113281 -87.191406 96.21875 -88.171875 C 94.320312 -89.148438 92.976562 -90.488281 92.1875 -92.1875 C 90.625 -96.25 87.878906 -99.257812 83.953125 -101.21875 C 80.023438 -103.175781 75.707031 -104.445312 71 -105.03125 C 66.300781 -105.625 61.921875 -105.921875 57.859375 -105.921875 C 55.242188 -105.921875 52.140625 -105.660156 48.546875 -105.140625 C 44.953125 -104.617188 41.453125 -103.703125 38.046875 -102.390625 C 34.648438 -101.085938 31.804688 -99.289062 29.515625 -97 C 27.234375 -94.707031 26.09375 -91.863281 26.09375 -88.46875 C 26.09375 -84.28125 27.722656 -81.140625 30.984375 -79.046875 C 34.253906 -76.953125 38.601562 -75.515625 44.03125 -74.734375 C 49.457031 -73.953125 55.378906 -73.300781 61.796875 -72.78125 C 68.585938 -72.125 75.347656 -71.367188 82.078125 -70.515625 C 88.816406 -69.671875 94.929688 -68.164062 100.421875 -66 C 105.921875 -63.84375 110.304688 -60.570312 113.578125 -56.1875 C 116.847656 -51.8125 118.484375 -45.703125 118.484375 -37.859375 C 118.484375 -30.015625 116.617188 -23.539062 112.890625 -18.4375 C 109.160156 -13.332031 104.285156 -9.273438 98.265625 -6.265625 C 92.253906 -3.265625 85.847656 -1.144531 79.046875 0.09375 C 72.242188 1.34375 65.769531 1.96875 59.625 1.96875 C 54.53125 1.96875 48.972656 1.472656 42.953125 0.484375 C 36.941406 -0.492188 31.09375 -2.191406 25.40625 -4.609375 C 19.71875 -7.023438 14.710938 -10.257812 10.390625 -14.3125 C 6.078125 -18.375 3.070312 -23.476562 1.375 -29.625 Z M 1.375 -29.625 "/></g></g></g><g fill="#373643" fill-opacity="1"><g transform="translate(872.421966, 187.385712)"><g><path d="M 102.203125 -19.609375 C 105.597656 -19.609375 108.242188 -18.53125 110.140625 -16.375 C 112.035156 -14.21875 112.984375 -11.898438 112.984375 -9.421875 C 112.984375 -7.066406 112.097656 -4.90625 110.328125 -2.9375 C 108.566406 -0.976562 105.859375 0 102.203125 0 L 24.328125 0 C 20.398438 0 17.257812 -1.140625 14.90625 -3.421875 C 12.550781 -5.710938 11.375 -8.492188 11.375 -11.765625 L 11.375 -113.375 C 11.375 -116.519531 12.550781 -119.234375 14.90625 -121.515625 C 17.257812 -123.804688 20.398438 -124.953125 24.328125 -124.953125 L 102.203125 -124.953125 C 105.734375 -124.953125 108.347656 -124.003906 110.046875 -122.109375 C 111.742188 -120.210938 112.59375 -118.019531 112.59375 -115.53125 C 112.59375 -113.175781 111.707031 -110.953125 109.9375 -108.859375 C 108.175781 -106.773438 105.597656 -105.734375 102.203125 -105.734375 L 33.734375 -105.734375 L 33.734375 -71.40625 L 98.671875 -71.40625 C 102.066406 -71.40625 104.613281 -70.390625 106.3125 -68.359375 C 108.007812 -66.328125 108.859375 -64.070312 108.859375 -61.59375 C 108.859375 -59.238281 108.007812 -57.078125 106.3125 -55.109375 C 104.613281 -53.148438 102.066406 -52.171875 98.671875 -52.171875 L 33.734375 -52.171875 L 33.734375 -19.609375 Z M 102.203125 -19.609375 "/></g></g></g></g></g></svg>